# Blender 5.0.1
# www.blender.org
mtllib playground_towerobj.mtl
o Cube.004
v -0.020680 0.408378 0.008974
v -0.020680 0.441422 0.008974
v -0.020680 0.408378 -0.469138
v -0.020680 0.441422 -0.469138
v 0.457432 0.408378 0.008974
v 0.457432 0.441422 0.008974
v 0.457432 0.408378 -0.469138
v 0.457432 0.441422 -0.469138
v -0.042974 0.856265 0.031268
v -0.042974 0.906949 0.031268
v -0.042974 0.856265 -0.491432
v -0.042974 0.906949 -0.491432
v 0.479726 0.856265 0.031268
v 0.479726 0.906949 0.031268
v 0.479726 0.856265 -0.491432
v 0.479726 0.906949 -0.491432
v 0.218376 1.033621 -0.491432
v 0.218376 1.084305 -0.491432
v 0.218376 1.033621 0.031268
v 0.218376 1.084305 0.031268
v 0.021869 0.907207 -0.032483
v 0.021869 -0.001448 -0.032483
v 0.021869 0.907207 0.011255
v 0.021869 -0.001448 0.011255
v -0.021869 0.907207 -0.032483
v -0.021869 -0.001448 -0.032483
v -0.021869 0.907207 0.011255
v -0.021869 -0.001448 0.011255
v 0.459248 0.907207 -0.032483
v 0.459248 -0.001448 -0.032483
v 0.459248 0.907207 0.011255
v 0.459248 -0.001448 0.011255
v 0.415510 0.907207 -0.032483
v 0.415510 -0.001448 -0.032483
v 0.415510 0.907207 0.011255
v 0.415510 -0.001448 0.011255
v 0.021869 0.907207 -0.469862
v 0.021869 -0.001448 -0.469862
v 0.021869 0.907207 -0.426124
v 0.021869 -0.001448 -0.426124
v -0.021869 0.907207 -0.469862
v -0.021869 -0.001448 -0.469862
v -0.021869 0.907207 -0.426124
v -0.021869 -0.001448 -0.426124
v 0.459248 0.907207 -0.469862
v 0.459248 -0.001448 -0.469862
v 0.459248 0.907207 -0.426124
v 0.459248 -0.001448 -0.426124
v 0.415510 0.907207 -0.469862
v 0.415510 -0.001448 -0.469862
v 0.415510 0.907207 -0.426124
v 0.415510 -0.001448 -0.426124
vn -1.0000 -0.0000 -0.0000
vn -0.0000 -0.0000 -1.0000
vn 1.0000 -0.0000 -0.0000
vn -0.0000 -0.0000 1.0000
vn -0.0000 -1.0000 -0.0000
vn -0.0000 1.0000 -0.0000
vn -0.5615 -0.8275 -0.0000
vn -0.5615 0.8275 -0.0000
vn 0.5615 0.8275 -0.0000
vn 0.5615 -0.8275 -0.0000
vt 0.785045 0.374336
vt 0.630318 0.374336
vt 0.576391 0.374336
vt 0.421664 0.374336
vt 0.576391 0.737718
vt 0.421664 0.737718
vt 0.630318 0.737718
vt 0.785045 0.737718
vt 0.483393 0.760340
vt 0.483393 0.807021
vt 0.516666 0.807021
vt 0.516666 0.760340
vt 0.499988 0.923688
vt 0.499988 0.970369
vt 0.516625 0.807021
vt 0.516625 0.760340
vt 0.483351 0.807021
vt 0.483351 0.760340
vt 0.516666 0.923688
vt 0.483393 0.923688
vt 0.516666 0.970369
vt 0.483393 0.970369
vt 0.487479 0.487451
vt 0.484695 0.487451
vt 0.484695 0.484667
vt 0.487479 0.484667
vt 0.487479 -0.029631
vt 0.487479 0.807259
vt 0.484695 0.807259
vt 0.484695 -0.029631
vt 0.484667 -0.029631
vt 0.484667 0.807259
vt 0.487451 0.807259
vt 0.487451 -0.029631
vt 0.515321 0.487451
vt 0.512537 0.487451
vt 0.512537 0.484667
vt 0.515321 0.484667
vt 0.515321 -0.029631
vt 0.515321 0.807259
vt 0.512537 0.807259
vt 0.512537 -0.029631
vt 0.487479 0.515293
vt 0.484695 0.515293
vt 0.484695 0.512509
vt 0.487479 0.512509
vt 0.512509 -0.029631
vt 0.512509 0.807259
vt 0.515293 0.807259
vt 0.515293 -0.029631
vt 0.515321 0.515293
vt 0.512537 0.515293
vt 0.512537 0.512509
vt 0.515321 0.512509
s 0
usemtl Material.001
f 9/9/1 10/10/1 12/11/1 11/12/1
f 17/13/2 18/14/2 16/15/2 15/16/2
f 15/12/3 16/11/3 14/10/3 13/9/3
f 19/13/4 20/14/4 10/17/4 9/18/4
f 17/19/7 15/12/7 13/9/7 19/20/7
f 18/21/8 12/11/8 10/10/8 20/22/8
f 16/11/9 18/21/9 20/22/9 14/10/9
f 11/12/10 17/19/10 19/20/10 9/9/10
f 13/16/4 14/15/4 20/14/4 19/13/4
f 11/18/2 12/17/2 18/14/2 17/13/2
usemtl Material.002
f 1/1/1 2/2/1 4/3/1 3/4/1
f 3/4/2 4/3/2 8/5/2 7/6/2
f 7/6/3 8/5/3 6/7/3 5/8/3
f 5/8/4 6/7/4 2/2/4 1/1/4
f 3/4/5 7/6/5 5/8/5 1/1/5
f 8/5/6 4/3/6 2/2/6 6/7/6
usemtl Material.004
f 21/23/6 25/24/6 27/25/6 23/26/6
f 24/27/4 23/28/4 27/29/4 28/30/4
f 28/31/1 27/32/1 25/33/1 26/34/1
f 26/24/5 22/23/5 24/26/5 28/25/5
f 22/34/3 21/33/3 23/32/3 24/31/3
f 26/30/2 25/29/2 21/28/2 22/27/2
f 29/35/6 33/36/6 35/37/6 31/38/6
f 32/39/4 31/40/4 35/41/4 36/42/4
f 36/31/1 35/32/1 33/33/1 34/34/1
f 34/36/5 30/35/5 32/38/5 36/37/5
f 30/34/3 29/33/3 31/32/3 32/31/3
f 34/42/2 33/41/2 29/40/2 30/39/2
f 37/43/6 41/44/6 43/45/6 39/46/6
f 40/27/4 39/28/4 43/29/4 44/30/4
f 44/47/1 43/48/1 41/49/1 42/50/1
f 42/44/5 38/43/5 40/46/5 44/45/5
f 38/50/3 37/49/3 39/48/3 40/47/3
f 42/30/2 41/29/2 37/28/2 38/27/2
f 45/51/6 49/52/6 51/53/6 47/54/6
f 48/39/4 47/40/4 51/41/4 52/42/4
f 52/47/1 51/48/1 49/49/1 50/50/1
f 50/52/5 46/51/5 48/54/5 52/53/5
f 46/50/3 45/49/3 47/48/3 48/47/3
f 50/42/2 49/41/2 45/40/2 46/39/2
